<svg xmlns="http://www.w3.org/2000/svg" xmlns:xlink="http://www.w3.org/1999/xlink" viewBox="0 0 559.01 63.99"><defs><style>.cls-1{fill:none;}.cls-2{fill:#d7c7a7;}.cls-3{fill:url(#_90_Halftone_2);}</style><pattern id="_90_Halftone_2" data-name="90% Halftone 2" width="14.97" height="14.97" patternTransform="translate(11.63 2.69) scale(0.33 0.45)" patternUnits="userSpaceOnUse" viewBox="0 0 14.97 14.97"><rect class="cls-1" width="14.97" height="14.97"/><path class="cls-2" d="M7.47,5.09A2.11,2.11,0,1,0,9.58,7.2,2.1,2.1,0,0,0,7.47,5.09Z"/><path class="cls-2" d="M2.11,0H0V2.11A2.12,2.12,0,0,0,2.11,0Z"/><path class="cls-2" d="M15,2.11V0H12.86A2.11,2.11,0,0,0,15,2.11Z"/><path class="cls-2" d="M15,12.86A2.1,2.1,0,0,0,12.86,15H15Z"/><path class="cls-2" d="M0,12.86V15H2.11A2.11,2.11,0,0,0,0,12.86Z"/></pattern></defs><g id="Layer_2" data-name="Layer 2"><g id="Layer_1-2" data-name="Layer 1"><polygon class="cls-3" points="0 0 559.01 0 559.01 63.99 0 63.99 0 0"/></g></g></svg>